<?xml version="1.0" standalone="no"?><svg xmlns="http://www.w3.org/2000/svg" viewBox="0 0 1440 320"><path fill="#0F4C75" fill-opacity="1" d="M0,288L34.3,266.7C68.6,245,137,203,206,154.7C274.3,107,343,53,411,74.7C480,96,549,192,617,240C685.7,288,754,288,823,250.7C891.4,213,960,139,1029,133.3C1097.1,128,1166,192,1234,213.3C1302.9,235,1371,213,1406,202.7L1440,192L1440,320L1405.7,320C1371.4,320,1303,320,1234,320C1165.7,320,1097,320,1029,320C960,320,891,320,823,320C754.3,320,686,320,617,320C548.6,320,480,320,411,320C342.9,320,274,320,206,320C137.1,320,69,320,34,320L0,320Z"></path></svg>